<mxfile host="Electron" agent="Mozilla/5.0 (Windows NT 10.0; Win64; x64) AppleWebKit/537.36 (KHTML, like Gecko) draw.io/26.2.15 Chrome/134.0.6998.205 Electron/35.2.1 Safari/537.36" version="26.2.15">
  <diagram name="Page-1" id="M8Vwbr8LOOj_9o6YuqZB">
    <mxGraphModel dx="1042" dy="634" grid="0" gridSize="1" guides="1" tooltips="1" connect="1" arrows="1" fold="1" page="1" pageScale="1" pageWidth="850" pageHeight="1100" math="0" shadow="0">
      <root>
        <mxCell id="0" />
        <mxCell id="1" parent="0" />
        <mxCell id="9frD3eqLlb03GNT8pfGp-8" value="User" style="swimlane;whiteSpace=wrap;html=1;" parent="1" vertex="1">
          <mxGeometry x="64" y="49" width="200" height="1241" as="geometry" />
        </mxCell>
        <mxCell id="9frD3eqLlb03GNT8pfGp-5" value="" style="ellipse;whiteSpace=wrap;html=1;fillColor=light-dark(#000000, #512d2b);strokeColor=light-dark(#000000, #d7817e);" parent="9frD3eqLlb03GNT8pfGp-8" vertex="1">
          <mxGeometry x="82" y="36" width="26" height="26" as="geometry" />
        </mxCell>
        <mxCell id="9frD3eqLlb03GNT8pfGp-11" style="edgeStyle=orthogonalEdgeStyle;rounded=0;orthogonalLoop=1;jettySize=auto;html=1;entryX=0.427;entryY=-0.025;entryDx=0;entryDy=0;entryPerimeter=0;" parent="9frD3eqLlb03GNT8pfGp-8" source="9frD3eqLlb03GNT8pfGp-5" edge="1">
          <mxGeometry relative="1" as="geometry">
            <mxPoint x="94.4079999999999" y="118" as="targetPoint" />
          </mxGeometry>
        </mxCell>
        <mxCell id="9frD3eqLlb03GNT8pfGp-16" value="" style="edgeStyle=orthogonalEdgeStyle;rounded=0;orthogonalLoop=1;jettySize=auto;html=1;fontFamily=Helvetica;fontSize=12;fontColor=default;" parent="9frD3eqLlb03GNT8pfGp-8" source="9frD3eqLlb03GNT8pfGp-14" target="9frD3eqLlb03GNT8pfGp-15" edge="1">
          <mxGeometry relative="1" as="geometry" />
        </mxCell>
        <mxCell id="9frD3eqLlb03GNT8pfGp-14" value="Login / Register" style="rounded=1;whiteSpace=wrap;html=1;strokeColor=default;align=center;verticalAlign=middle;fontFamily=Helvetica;fontSize=12;fontColor=default;fillColor=default;" parent="9frD3eqLlb03GNT8pfGp-8" vertex="1">
          <mxGeometry x="41" y="117" width="108" height="39" as="geometry" />
        </mxCell>
        <mxCell id="9frD3eqLlb03GNT8pfGp-18" value="" style="edgeStyle=orthogonalEdgeStyle;rounded=0;orthogonalLoop=1;jettySize=auto;html=1;fontFamily=Helvetica;fontSize=12;fontColor=default;" parent="9frD3eqLlb03GNT8pfGp-8" source="9frD3eqLlb03GNT8pfGp-15" target="9frD3eqLlb03GNT8pfGp-17" edge="1">
          <mxGeometry relative="1" as="geometry" />
        </mxCell>
        <mxCell id="9frD3eqLlb03GNT8pfGp-15" value="Search for Movies" style="rounded=1;whiteSpace=wrap;html=1;strokeColor=default;align=center;verticalAlign=middle;fontFamily=Helvetica;fontSize=12;fontColor=default;fillColor=default;" parent="9frD3eqLlb03GNT8pfGp-8" vertex="1">
          <mxGeometry x="40" y="211" width="109" height="41" as="geometry" />
        </mxCell>
        <mxCell id="9frD3eqLlb03GNT8pfGp-21" value="" style="edgeStyle=orthogonalEdgeStyle;rounded=0;orthogonalLoop=1;jettySize=auto;html=1;fontFamily=Helvetica;fontSize=12;fontColor=default;" parent="9frD3eqLlb03GNT8pfGp-8" source="9frD3eqLlb03GNT8pfGp-17" target="9frD3eqLlb03GNT8pfGp-20" edge="1">
          <mxGeometry relative="1" as="geometry" />
        </mxCell>
        <mxCell id="9frD3eqLlb03GNT8pfGp-17" value="Select Movie" style="rounded=1;whiteSpace=wrap;html=1;strokeColor=default;align=center;verticalAlign=middle;fontFamily=Helvetica;fontSize=12;fontColor=default;fillColor=default;" parent="9frD3eqLlb03GNT8pfGp-8" vertex="1">
          <mxGeometry x="40" y="321" width="109" height="41" as="geometry" />
        </mxCell>
        <mxCell id="9frD3eqLlb03GNT8pfGp-24" value="" style="edgeStyle=orthogonalEdgeStyle;rounded=0;orthogonalLoop=1;jettySize=auto;html=1;fontFamily=Helvetica;fontSize=12;fontColor=default;" parent="9frD3eqLlb03GNT8pfGp-8" source="9frD3eqLlb03GNT8pfGp-20" target="9frD3eqLlb03GNT8pfGp-23" edge="1">
          <mxGeometry relative="1" as="geometry" />
        </mxCell>
        <mxCell id="9frD3eqLlb03GNT8pfGp-20" value="View Showtimes" style="rounded=1;whiteSpace=wrap;html=1;strokeColor=default;align=center;verticalAlign=middle;fontFamily=Helvetica;fontSize=12;fontColor=default;fillColor=default;" parent="9frD3eqLlb03GNT8pfGp-8" vertex="1">
          <mxGeometry x="40" y="433" width="109" height="41" as="geometry" />
        </mxCell>
        <mxCell id="9frD3eqLlb03GNT8pfGp-27" value="" style="edgeStyle=orthogonalEdgeStyle;rounded=0;orthogonalLoop=1;jettySize=auto;html=1;fontFamily=Helvetica;fontSize=12;fontColor=default;" parent="9frD3eqLlb03GNT8pfGp-8" source="9frD3eqLlb03GNT8pfGp-23" target="9frD3eqLlb03GNT8pfGp-26" edge="1">
          <mxGeometry relative="1" as="geometry" />
        </mxCell>
        <mxCell id="9frD3eqLlb03GNT8pfGp-23" value="Select Showtime" style="rounded=1;whiteSpace=wrap;html=1;strokeColor=default;align=center;verticalAlign=middle;fontFamily=Helvetica;fontSize=12;fontColor=default;fillColor=default;" parent="9frD3eqLlb03GNT8pfGp-8" vertex="1">
          <mxGeometry x="40" y="548" width="109" height="41" as="geometry" />
        </mxCell>
        <mxCell id="9frD3eqLlb03GNT8pfGp-31" value="" style="edgeStyle=orthogonalEdgeStyle;rounded=0;orthogonalLoop=1;jettySize=auto;html=1;fontFamily=Helvetica;fontSize=12;fontColor=default;" parent="9frD3eqLlb03GNT8pfGp-8" source="9frD3eqLlb03GNT8pfGp-26" target="9frD3eqLlb03GNT8pfGp-30" edge="1">
          <mxGeometry relative="1" as="geometry" />
        </mxCell>
        <mxCell id="9frD3eqLlb03GNT8pfGp-26" value="Confirm Reservation" style="rounded=1;whiteSpace=wrap;html=1;strokeColor=default;align=center;verticalAlign=middle;fontFamily=Helvetica;fontSize=12;fontColor=default;fillColor=default;" parent="9frD3eqLlb03GNT8pfGp-8" vertex="1">
          <mxGeometry x="40" y="663" width="109" height="41" as="geometry" />
        </mxCell>
        <mxCell id="9frD3eqLlb03GNT8pfGp-33" value="" style="edgeStyle=orthogonalEdgeStyle;rounded=0;orthogonalLoop=1;jettySize=auto;html=1;fontFamily=Helvetica;fontSize=12;fontColor=default;" parent="9frD3eqLlb03GNT8pfGp-8" source="9frD3eqLlb03GNT8pfGp-30" target="9frD3eqLlb03GNT8pfGp-32" edge="1">
          <mxGeometry relative="1" as="geometry" />
        </mxCell>
        <mxCell id="9frD3eqLlb03GNT8pfGp-30" value="Proceed to Payment" style="rounded=1;whiteSpace=wrap;html=1;strokeColor=default;align=center;verticalAlign=middle;fontFamily=Helvetica;fontSize=12;fontColor=default;fillColor=default;" parent="9frD3eqLlb03GNT8pfGp-8" vertex="1">
          <mxGeometry x="40" y="778" width="109" height="41" as="geometry" />
        </mxCell>
        <mxCell id="9frD3eqLlb03GNT8pfGp-37" style="edgeStyle=orthogonalEdgeStyle;rounded=0;orthogonalLoop=1;jettySize=auto;html=1;exitX=0.5;exitY=1;exitDx=0;exitDy=0;entryX=0.5;entryY=0;entryDx=0;entryDy=0;fontFamily=Helvetica;fontSize=12;fontColor=default;" parent="9frD3eqLlb03GNT8pfGp-8" source="9frD3eqLlb03GNT8pfGp-32" target="9frD3eqLlb03GNT8pfGp-35" edge="1">
          <mxGeometry relative="1" as="geometry" />
        </mxCell>
        <mxCell id="9frD3eqLlb03GNT8pfGp-32" value="Process Payment" style="rounded=1;whiteSpace=wrap;html=1;strokeColor=default;align=center;verticalAlign=middle;fontFamily=Helvetica;fontSize=12;fontColor=default;fillColor=default;" parent="9frD3eqLlb03GNT8pfGp-8" vertex="1">
          <mxGeometry x="40" y="885" width="109" height="41" as="geometry" />
        </mxCell>
        <mxCell id="9frD3eqLlb03GNT8pfGp-41" style="edgeStyle=orthogonalEdgeStyle;rounded=0;orthogonalLoop=1;jettySize=auto;html=1;exitX=0;exitY=1;exitDx=0;exitDy=0;entryX=0.5;entryY=0;entryDx=0;entryDy=0;fontFamily=Helvetica;fontSize=12;fontColor=default;" parent="9frD3eqLlb03GNT8pfGp-8" source="9frD3eqLlb03GNT8pfGp-35" target="9frD3eqLlb03GNT8pfGp-38" edge="1">
          <mxGeometry relative="1" as="geometry" />
        </mxCell>
        <mxCell id="9frD3eqLlb03GNT8pfGp-35" value="Payment successful?" style="rhombus;whiteSpace=wrap;html=1;rounded=1;strokeColor=default;align=center;verticalAlign=middle;fontFamily=Helvetica;fontSize=12;fontColor=default;fillColor=default;" parent="9frD3eqLlb03GNT8pfGp-8" vertex="1">
          <mxGeometry x="26.5" y="967" width="137" height="80" as="geometry" />
        </mxCell>
        <mxCell id="9frD3eqLlb03GNT8pfGp-38" value="Show Receipt" style="rounded=1;whiteSpace=wrap;html=1;strokeColor=default;align=center;verticalAlign=middle;fontFamily=Helvetica;fontSize=12;fontColor=default;fillColor=default;" parent="9frD3eqLlb03GNT8pfGp-8" vertex="1">
          <mxGeometry x="9" y="1060" width="85" height="41" as="geometry" />
        </mxCell>
        <mxCell id="9frD3eqLlb03GNT8pfGp-39" value="Show Error" style="rounded=1;whiteSpace=wrap;html=1;strokeColor=default;align=center;verticalAlign=middle;fontFamily=Helvetica;fontSize=12;fontColor=default;fillColor=default;" parent="9frD3eqLlb03GNT8pfGp-8" vertex="1">
          <mxGeometry x="103" y="1060" width="90" height="42" as="geometry" />
        </mxCell>
        <mxCell id="9frD3eqLlb03GNT8pfGp-40" style="edgeStyle=orthogonalEdgeStyle;rounded=0;orthogonalLoop=1;jettySize=auto;html=1;exitX=1;exitY=1;exitDx=0;exitDy=0;entryX=0.38;entryY=0.052;entryDx=0;entryDy=0;entryPerimeter=0;fontFamily=Helvetica;fontSize=12;fontColor=default;" parent="9frD3eqLlb03GNT8pfGp-8" source="9frD3eqLlb03GNT8pfGp-35" target="9frD3eqLlb03GNT8pfGp-39" edge="1">
          <mxGeometry relative="1" as="geometry" />
        </mxCell>
        <mxCell id="9frD3eqLlb03GNT8pfGp-46" value="" style="ellipse;whiteSpace=wrap;html=1;rounded=1;strokeColor=default;align=center;verticalAlign=middle;fontFamily=Helvetica;fontSize=12;fontColor=default;fillColor=default;" parent="9frD3eqLlb03GNT8pfGp-8" vertex="1">
          <mxGeometry x="26.5" y="1176" width="40" height="37" as="geometry" />
        </mxCell>
        <mxCell id="9frD3eqLlb03GNT8pfGp-48" value="" style="ellipse;whiteSpace=wrap;html=1;rounded=1;strokeColor=default;align=center;verticalAlign=middle;fontFamily=Helvetica;fontSize=12;fontColor=default;fillColor=#000000;" parent="9frD3eqLlb03GNT8pfGp-8" vertex="1">
          <mxGeometry x="33.5" y="1183" width="26" height="23" as="geometry" />
        </mxCell>
        <mxCell id="9frD3eqLlb03GNT8pfGp-49" value="" style="ellipse;whiteSpace=wrap;html=1;rounded=1;strokeColor=default;align=center;verticalAlign=middle;fontFamily=Helvetica;fontSize=12;fontColor=default;fillColor=default;" parent="9frD3eqLlb03GNT8pfGp-8" vertex="1">
          <mxGeometry x="141" y="1176" width="40" height="37" as="geometry" />
        </mxCell>
        <mxCell id="9frD3eqLlb03GNT8pfGp-50" value="" style="ellipse;whiteSpace=wrap;html=1;rounded=1;strokeColor=default;align=center;verticalAlign=middle;fontFamily=Helvetica;fontSize=12;fontColor=default;fillColor=#000000;" parent="9frD3eqLlb03GNT8pfGp-8" vertex="1">
          <mxGeometry x="148" y="1183" width="26" height="23" as="geometry" />
        </mxCell>
        <mxCell id="9frD3eqLlb03GNT8pfGp-54" value="" style="endArrow=classic;html=1;rounded=0;fontFamily=Helvetica;fontSize=12;fontColor=default;entryX=0.5;entryY=0;entryDx=0;entryDy=0;exitX=0.414;exitY=1.02;exitDx=0;exitDy=0;exitPerimeter=0;" parent="9frD3eqLlb03GNT8pfGp-8" source="9frD3eqLlb03GNT8pfGp-38" target="9frD3eqLlb03GNT8pfGp-46" edge="1">
          <mxGeometry width="50" height="50" relative="1" as="geometry">
            <mxPoint x="43" y="1102" as="sourcePoint" />
            <mxPoint x="405" y="1189" as="targetPoint" />
          </mxGeometry>
        </mxCell>
        <mxCell id="9frD3eqLlb03GNT8pfGp-55" value="" style="endArrow=classic;html=1;rounded=0;fontFamily=Helvetica;fontSize=12;fontColor=default;exitX=0.6;exitY=0.957;exitDx=0;exitDy=0;exitPerimeter=0;entryX=0.5;entryY=0;entryDx=0;entryDy=0;" parent="9frD3eqLlb03GNT8pfGp-8" source="9frD3eqLlb03GNT8pfGp-39" target="9frD3eqLlb03GNT8pfGp-49" edge="1">
          <mxGeometry width="50" height="50" relative="1" as="geometry">
            <mxPoint x="97" y="1182" as="sourcePoint" />
            <mxPoint x="147" y="1132" as="targetPoint" />
          </mxGeometry>
        </mxCell>
        <mxCell id="9frD3eqLlb03GNT8pfGp-56" value="Admin" style="swimlane;whiteSpace=wrap;html=1;rounded=0;strokeColor=default;align=center;verticalAlign=middle;fontFamily=Helvetica;fontSize=12;fontColor=default;fillColor=default;" parent="1" vertex="1">
          <mxGeometry x="298" y="47" width="480" height="1235" as="geometry" />
        </mxCell>
        <mxCell id="9frD3eqLlb03GNT8pfGp-58" value="" style="ellipse;whiteSpace=wrap;html=1;fillColor=light-dark(#000000, #512d2b);strokeColor=light-dark(#000000, #d7817e);" parent="9frD3eqLlb03GNT8pfGp-56" vertex="1">
          <mxGeometry x="205" y="40" width="26" height="26" as="geometry" />
        </mxCell>
        <mxCell id="9frD3eqLlb03GNT8pfGp-64" value="" style="edgeStyle=orthogonalEdgeStyle;rounded=0;orthogonalLoop=1;jettySize=auto;html=1;fontFamily=Helvetica;fontSize=12;fontColor=default;" parent="9frD3eqLlb03GNT8pfGp-56" source="9frD3eqLlb03GNT8pfGp-60" target="9frD3eqLlb03GNT8pfGp-63" edge="1">
          <mxGeometry relative="1" as="geometry" />
        </mxCell>
        <mxCell id="9frD3eqLlb03GNT8pfGp-60" value="Login as Admin" style="rounded=1;whiteSpace=wrap;html=1;strokeColor=default;align=center;verticalAlign=middle;fontFamily=Helvetica;fontSize=12;fontColor=default;fillColor=default;" parent="9frD3eqLlb03GNT8pfGp-56" vertex="1">
          <mxGeometry x="170" y="194" width="108" height="39" as="geometry" />
        </mxCell>
        <mxCell id="9frD3eqLlb03GNT8pfGp-62" style="edgeStyle=orthogonalEdgeStyle;rounded=0;orthogonalLoop=1;jettySize=auto;html=1;entryX=0.444;entryY=0.041;entryDx=0;entryDy=0;entryPerimeter=0;fontFamily=Helvetica;fontSize=12;fontColor=default;" parent="9frD3eqLlb03GNT8pfGp-56" source="9frD3eqLlb03GNT8pfGp-58" target="9frD3eqLlb03GNT8pfGp-60" edge="1">
          <mxGeometry relative="1" as="geometry" />
        </mxCell>
        <mxCell id="9frD3eqLlb03GNT8pfGp-83" value="" style="edgeStyle=orthogonalEdgeStyle;rounded=0;orthogonalLoop=1;jettySize=auto;html=1;fontFamily=Helvetica;fontSize=12;fontColor=default;" parent="9frD3eqLlb03GNT8pfGp-56" source="9frD3eqLlb03GNT8pfGp-63" target="9frD3eqLlb03GNT8pfGp-82" edge="1">
          <mxGeometry relative="1" as="geometry" />
        </mxCell>
        <mxCell id="9frD3eqLlb03GNT8pfGp-63" value="View Dashboard" style="rounded=1;whiteSpace=wrap;html=1;strokeColor=default;align=center;verticalAlign=middle;fontFamily=Helvetica;fontSize=12;fontColor=default;fillColor=default;" parent="9frD3eqLlb03GNT8pfGp-56" vertex="1">
          <mxGeometry x="170" y="377" width="108" height="39" as="geometry" />
        </mxCell>
        <mxCell id="9frD3eqLlb03GNT8pfGp-95" style="edgeStyle=orthogonalEdgeStyle;rounded=0;orthogonalLoop=1;jettySize=auto;html=1;entryX=0;entryY=0.75;entryDx=0;entryDy=0;fontFamily=Helvetica;fontSize=12;fontColor=default;" parent="9frD3eqLlb03GNT8pfGp-56" source="9frD3eqLlb03GNT8pfGp-65" target="9frD3eqLlb03GNT8pfGp-89" edge="1">
          <mxGeometry relative="1" as="geometry">
            <Array as="points">
              <mxPoint x="50" y="1000" />
            </Array>
          </mxGeometry>
        </mxCell>
        <mxCell id="9frD3eqLlb03GNT8pfGp-65" value="Manage Users" style="rounded=1;whiteSpace=wrap;html=1;strokeColor=default;align=center;verticalAlign=middle;fontFamily=Helvetica;fontSize=12;fontColor=default;fillColor=default;" parent="9frD3eqLlb03GNT8pfGp-56" vertex="1">
          <mxGeometry x="13" y="769" width="108" height="39" as="geometry" />
        </mxCell>
        <mxCell id="9frD3eqLlb03GNT8pfGp-92" style="edgeStyle=orthogonalEdgeStyle;rounded=0;orthogonalLoop=1;jettySize=auto;html=1;entryX=0.25;entryY=0;entryDx=0;entryDy=0;fontFamily=Helvetica;fontSize=12;fontColor=default;" parent="9frD3eqLlb03GNT8pfGp-56" source="9frD3eqLlb03GNT8pfGp-68" target="9frD3eqLlb03GNT8pfGp-89" edge="1">
          <mxGeometry relative="1" as="geometry" />
        </mxCell>
        <mxCell id="9frD3eqLlb03GNT8pfGp-68" value="Manage Movie Managers" style="rounded=1;whiteSpace=wrap;html=1;strokeColor=default;align=center;verticalAlign=middle;fontFamily=Helvetica;fontSize=12;fontColor=default;fillColor=default;" parent="9frD3eqLlb03GNT8pfGp-56" vertex="1">
          <mxGeometry x="130" y="769" width="108" height="39" as="geometry" />
        </mxCell>
        <mxCell id="9frD3eqLlb03GNT8pfGp-72" value="Check Movies &amp;amp; Showtimes" style="rounded=1;whiteSpace=wrap;html=1;strokeColor=default;align=center;verticalAlign=middle;fontFamily=Helvetica;fontSize=12;fontColor=default;fillColor=default;" parent="9frD3eqLlb03GNT8pfGp-56" vertex="1">
          <mxGeometry x="247" y="769" width="108" height="39" as="geometry" />
        </mxCell>
        <mxCell id="jj-EogMtagv3h7NECr4A-1" style="edgeStyle=orthogonalEdgeStyle;rounded=0;orthogonalLoop=1;jettySize=auto;html=1;entryX=1;entryY=0.5;entryDx=0;entryDy=0;" edge="1" parent="9frD3eqLlb03GNT8pfGp-56" source="9frD3eqLlb03GNT8pfGp-75" target="9frD3eqLlb03GNT8pfGp-89">
          <mxGeometry relative="1" as="geometry">
            <Array as="points">
              <mxPoint x="426" y="991" />
            </Array>
          </mxGeometry>
        </mxCell>
        <mxCell id="9frD3eqLlb03GNT8pfGp-75" value="View Reports" style="rounded=1;whiteSpace=wrap;html=1;strokeColor=default;align=center;verticalAlign=middle;fontFamily=Helvetica;fontSize=12;fontColor=default;fillColor=default;" parent="9frD3eqLlb03GNT8pfGp-56" vertex="1">
          <mxGeometry x="365" y="769" width="108" height="39" as="geometry" />
        </mxCell>
        <mxCell id="9frD3eqLlb03GNT8pfGp-84" style="edgeStyle=orthogonalEdgeStyle;rounded=0;orthogonalLoop=1;jettySize=auto;html=1;entryX=0.5;entryY=0;entryDx=0;entryDy=0;fontFamily=Helvetica;fontSize=12;fontColor=default;" parent="9frD3eqLlb03GNT8pfGp-56" source="9frD3eqLlb03GNT8pfGp-82" target="9frD3eqLlb03GNT8pfGp-65" edge="1">
          <mxGeometry relative="1" as="geometry" />
        </mxCell>
        <mxCell id="9frD3eqLlb03GNT8pfGp-85" style="edgeStyle=orthogonalEdgeStyle;rounded=0;orthogonalLoop=1;jettySize=auto;html=1;entryX=0.5;entryY=0;entryDx=0;entryDy=0;fontFamily=Helvetica;fontSize=12;fontColor=default;" parent="9frD3eqLlb03GNT8pfGp-56" source="9frD3eqLlb03GNT8pfGp-82" target="9frD3eqLlb03GNT8pfGp-68" edge="1">
          <mxGeometry relative="1" as="geometry" />
        </mxCell>
        <mxCell id="9frD3eqLlb03GNT8pfGp-86" style="edgeStyle=orthogonalEdgeStyle;rounded=0;orthogonalLoop=1;jettySize=auto;html=1;entryX=0.25;entryY=0;entryDx=0;entryDy=0;fontFamily=Helvetica;fontSize=12;fontColor=default;" parent="9frD3eqLlb03GNT8pfGp-56" source="9frD3eqLlb03GNT8pfGp-82" target="9frD3eqLlb03GNT8pfGp-72" edge="1">
          <mxGeometry relative="1" as="geometry" />
        </mxCell>
        <mxCell id="9frD3eqLlb03GNT8pfGp-87" style="edgeStyle=orthogonalEdgeStyle;rounded=0;orthogonalLoop=1;jettySize=auto;html=1;fontFamily=Helvetica;fontSize=12;fontColor=default;" parent="9frD3eqLlb03GNT8pfGp-56" source="9frD3eqLlb03GNT8pfGp-82" target="9frD3eqLlb03GNT8pfGp-75" edge="1">
          <mxGeometry relative="1" as="geometry" />
        </mxCell>
        <mxCell id="9frD3eqLlb03GNT8pfGp-82" value="Select Action?" style="rhombus;whiteSpace=wrap;html=1;rounded=1;" parent="9frD3eqLlb03GNT8pfGp-56" vertex="1">
          <mxGeometry x="162" y="475.5" width="124" height="112.5" as="geometry" />
        </mxCell>
        <mxCell id="9frD3eqLlb03GNT8pfGp-100" style="edgeStyle=orthogonalEdgeStyle;rounded=0;orthogonalLoop=1;jettySize=auto;html=1;entryX=0.5;entryY=0;entryDx=0;entryDy=0;fontFamily=Helvetica;fontSize=12;fontColor=default;" parent="9frD3eqLlb03GNT8pfGp-56" source="9frD3eqLlb03GNT8pfGp-89" target="9frD3eqLlb03GNT8pfGp-97" edge="1">
          <mxGeometry relative="1" as="geometry" />
        </mxCell>
        <mxCell id="9frD3eqLlb03GNT8pfGp-89" value="Logout" style="rounded=1;whiteSpace=wrap;html=1;strokeColor=default;align=center;verticalAlign=middle;fontFamily=Helvetica;fontSize=12;fontColor=default;fillColor=default;" parent="9frD3eqLlb03GNT8pfGp-56" vertex="1">
          <mxGeometry x="186" y="971" width="108" height="39" as="geometry" />
        </mxCell>
        <mxCell id="9frD3eqLlb03GNT8pfGp-91" style="edgeStyle=orthogonalEdgeStyle;rounded=0;orthogonalLoop=1;jettySize=auto;html=1;entryX=0.9;entryY=-0.031;entryDx=0;entryDy=0;entryPerimeter=0;fontFamily=Helvetica;fontSize=12;fontColor=default;" parent="9frD3eqLlb03GNT8pfGp-56" source="9frD3eqLlb03GNT8pfGp-72" target="9frD3eqLlb03GNT8pfGp-89" edge="1">
          <mxGeometry relative="1" as="geometry" />
        </mxCell>
        <mxCell id="9frD3eqLlb03GNT8pfGp-97" value="" style="ellipse;whiteSpace=wrap;html=1;rounded=1;strokeColor=default;align=center;verticalAlign=middle;fontFamily=Helvetica;fontSize=12;fontColor=default;fillColor=default;" parent="9frD3eqLlb03GNT8pfGp-56" vertex="1">
          <mxGeometry x="222" y="1158" width="40" height="37" as="geometry" />
        </mxCell>
        <mxCell id="9frD3eqLlb03GNT8pfGp-98" value="" style="ellipse;whiteSpace=wrap;html=1;rounded=1;strokeColor=default;align=center;verticalAlign=middle;fontFamily=Helvetica;fontSize=12;fontColor=default;fillColor=#000000;" parent="9frD3eqLlb03GNT8pfGp-56" vertex="1">
          <mxGeometry x="229" y="1165" width="26" height="23" as="geometry" />
        </mxCell>
        <mxCell id="9frD3eqLlb03GNT8pfGp-101" value="Movie Manager" style="swimlane;whiteSpace=wrap;html=1;rounded=0;strokeColor=default;align=center;verticalAlign=middle;fontFamily=Helvetica;fontSize=12;fontColor=default;fillColor=default;" parent="1" vertex="1">
          <mxGeometry x="813" y="49" width="480" height="1235" as="geometry" />
        </mxCell>
        <mxCell id="9frD3eqLlb03GNT8pfGp-102" value="" style="ellipse;whiteSpace=wrap;html=1;fillColor=light-dark(#000000, #512d2b);strokeColor=light-dark(#000000, #d7817e);" parent="9frD3eqLlb03GNT8pfGp-101" vertex="1">
          <mxGeometry x="205" y="40" width="26" height="26" as="geometry" />
        </mxCell>
        <mxCell id="9frD3eqLlb03GNT8pfGp-103" value="" style="edgeStyle=orthogonalEdgeStyle;rounded=0;orthogonalLoop=1;jettySize=auto;html=1;fontFamily=Helvetica;fontSize=12;fontColor=default;" parent="9frD3eqLlb03GNT8pfGp-101" source="9frD3eqLlb03GNT8pfGp-104" target="9frD3eqLlb03GNT8pfGp-107" edge="1">
          <mxGeometry relative="1" as="geometry" />
        </mxCell>
        <mxCell id="9frD3eqLlb03GNT8pfGp-104" value="Login as Movie Manager" style="rounded=1;whiteSpace=wrap;html=1;strokeColor=default;align=center;verticalAlign=middle;fontFamily=Helvetica;fontSize=12;fontColor=default;fillColor=default;" parent="9frD3eqLlb03GNT8pfGp-101" vertex="1">
          <mxGeometry x="170" y="194" width="108" height="39" as="geometry" />
        </mxCell>
        <mxCell id="9frD3eqLlb03GNT8pfGp-105" style="edgeStyle=orthogonalEdgeStyle;rounded=0;orthogonalLoop=1;jettySize=auto;html=1;entryX=0.444;entryY=0.041;entryDx=0;entryDy=0;entryPerimeter=0;fontFamily=Helvetica;fontSize=12;fontColor=default;" parent="9frD3eqLlb03GNT8pfGp-101" source="9frD3eqLlb03GNT8pfGp-102" target="9frD3eqLlb03GNT8pfGp-104" edge="1">
          <mxGeometry relative="1" as="geometry" />
        </mxCell>
        <mxCell id="9frD3eqLlb03GNT8pfGp-106" value="" style="edgeStyle=orthogonalEdgeStyle;rounded=0;orthogonalLoop=1;jettySize=auto;html=1;fontFamily=Helvetica;fontSize=12;fontColor=default;" parent="9frD3eqLlb03GNT8pfGp-101" source="9frD3eqLlb03GNT8pfGp-107" target="9frD3eqLlb03GNT8pfGp-119" edge="1">
          <mxGeometry relative="1" as="geometry" />
        </mxCell>
        <mxCell id="9frD3eqLlb03GNT8pfGp-107" value="View Dashboard" style="rounded=1;whiteSpace=wrap;html=1;strokeColor=default;align=center;verticalAlign=middle;fontFamily=Helvetica;fontSize=12;fontColor=default;fillColor=default;" parent="9frD3eqLlb03GNT8pfGp-101" vertex="1">
          <mxGeometry x="170" y="377" width="108" height="39" as="geometry" />
        </mxCell>
        <mxCell id="9frD3eqLlb03GNT8pfGp-108" style="edgeStyle=orthogonalEdgeStyle;rounded=0;orthogonalLoop=1;jettySize=auto;html=1;entryX=0;entryY=0.75;entryDx=0;entryDy=0;fontFamily=Helvetica;fontSize=12;fontColor=default;" parent="9frD3eqLlb03GNT8pfGp-101" source="9frD3eqLlb03GNT8pfGp-109" target="9frD3eqLlb03GNT8pfGp-121" edge="1">
          <mxGeometry relative="1" as="geometry">
            <Array as="points">
              <mxPoint x="50" y="1000" />
            </Array>
          </mxGeometry>
        </mxCell>
        <mxCell id="9frD3eqLlb03GNT8pfGp-109" value="Add Movie" style="rounded=1;whiteSpace=wrap;html=1;strokeColor=default;align=center;verticalAlign=middle;fontFamily=Helvetica;fontSize=12;fontColor=default;fillColor=default;" parent="9frD3eqLlb03GNT8pfGp-101" vertex="1">
          <mxGeometry x="13" y="769" width="108" height="39" as="geometry" />
        </mxCell>
        <mxCell id="9frD3eqLlb03GNT8pfGp-110" style="edgeStyle=orthogonalEdgeStyle;rounded=0;orthogonalLoop=1;jettySize=auto;html=1;entryX=0.25;entryY=0;entryDx=0;entryDy=0;fontFamily=Helvetica;fontSize=12;fontColor=default;" parent="9frD3eqLlb03GNT8pfGp-101" source="9frD3eqLlb03GNT8pfGp-111" target="9frD3eqLlb03GNT8pfGp-121" edge="1">
          <mxGeometry relative="1" as="geometry" />
        </mxCell>
        <mxCell id="9frD3eqLlb03GNT8pfGp-111" value="Add Showtime" style="rounded=1;whiteSpace=wrap;html=1;strokeColor=default;align=center;verticalAlign=middle;fontFamily=Helvetica;fontSize=12;fontColor=default;fillColor=default;" parent="9frD3eqLlb03GNT8pfGp-101" vertex="1">
          <mxGeometry x="130" y="769" width="108" height="39" as="geometry" />
        </mxCell>
        <mxCell id="9frD3eqLlb03GNT8pfGp-112" value="Edit Movie" style="rounded=1;whiteSpace=wrap;html=1;strokeColor=default;align=center;verticalAlign=middle;fontFamily=Helvetica;fontSize=12;fontColor=default;fillColor=default;" parent="9frD3eqLlb03GNT8pfGp-101" vertex="1">
          <mxGeometry x="247" y="769" width="108" height="39" as="geometry" />
        </mxCell>
        <mxCell id="jj-EogMtagv3h7NECr4A-2" style="edgeStyle=orthogonalEdgeStyle;rounded=0;orthogonalLoop=1;jettySize=auto;html=1;entryX=1;entryY=0.5;entryDx=0;entryDy=0;" edge="1" parent="9frD3eqLlb03GNT8pfGp-101" source="9frD3eqLlb03GNT8pfGp-114" target="9frD3eqLlb03GNT8pfGp-121">
          <mxGeometry relative="1" as="geometry">
            <Array as="points">
              <mxPoint x="419" y="991" />
              <mxPoint x="330" y="991" />
            </Array>
          </mxGeometry>
        </mxCell>
        <mxCell id="9frD3eqLlb03GNT8pfGp-114" value="Delete Movie" style="rounded=1;whiteSpace=wrap;html=1;strokeColor=default;align=center;verticalAlign=middle;fontFamily=Helvetica;fontSize=12;fontColor=default;fillColor=default;" parent="9frD3eqLlb03GNT8pfGp-101" vertex="1">
          <mxGeometry x="365" y="769" width="108" height="39" as="geometry" />
        </mxCell>
        <mxCell id="9frD3eqLlb03GNT8pfGp-115" style="edgeStyle=orthogonalEdgeStyle;rounded=0;orthogonalLoop=1;jettySize=auto;html=1;entryX=0.5;entryY=0;entryDx=0;entryDy=0;fontFamily=Helvetica;fontSize=12;fontColor=default;" parent="9frD3eqLlb03GNT8pfGp-101" source="9frD3eqLlb03GNT8pfGp-119" target="9frD3eqLlb03GNT8pfGp-109" edge="1">
          <mxGeometry relative="1" as="geometry" />
        </mxCell>
        <mxCell id="9frD3eqLlb03GNT8pfGp-116" style="edgeStyle=orthogonalEdgeStyle;rounded=0;orthogonalLoop=1;jettySize=auto;html=1;entryX=0.5;entryY=0;entryDx=0;entryDy=0;fontFamily=Helvetica;fontSize=12;fontColor=default;" parent="9frD3eqLlb03GNT8pfGp-101" source="9frD3eqLlb03GNT8pfGp-119" target="9frD3eqLlb03GNT8pfGp-111" edge="1">
          <mxGeometry relative="1" as="geometry" />
        </mxCell>
        <mxCell id="9frD3eqLlb03GNT8pfGp-117" style="edgeStyle=orthogonalEdgeStyle;rounded=0;orthogonalLoop=1;jettySize=auto;html=1;entryX=0.25;entryY=0;entryDx=0;entryDy=0;fontFamily=Helvetica;fontSize=12;fontColor=default;" parent="9frD3eqLlb03GNT8pfGp-101" source="9frD3eqLlb03GNT8pfGp-119" target="9frD3eqLlb03GNT8pfGp-112" edge="1">
          <mxGeometry relative="1" as="geometry" />
        </mxCell>
        <mxCell id="9frD3eqLlb03GNT8pfGp-118" style="edgeStyle=orthogonalEdgeStyle;rounded=0;orthogonalLoop=1;jettySize=auto;html=1;fontFamily=Helvetica;fontSize=12;fontColor=default;" parent="9frD3eqLlb03GNT8pfGp-101" source="9frD3eqLlb03GNT8pfGp-119" target="9frD3eqLlb03GNT8pfGp-114" edge="1">
          <mxGeometry relative="1" as="geometry" />
        </mxCell>
        <mxCell id="9frD3eqLlb03GNT8pfGp-119" value="Select Action?" style="rhombus;whiteSpace=wrap;html=1;rounded=1;" parent="9frD3eqLlb03GNT8pfGp-101" vertex="1">
          <mxGeometry x="162" y="475.5" width="124" height="112.5" as="geometry" />
        </mxCell>
        <mxCell id="9frD3eqLlb03GNT8pfGp-120" style="edgeStyle=orthogonalEdgeStyle;rounded=0;orthogonalLoop=1;jettySize=auto;html=1;entryX=0.5;entryY=0;entryDx=0;entryDy=0;fontFamily=Helvetica;fontSize=12;fontColor=default;" parent="9frD3eqLlb03GNT8pfGp-101" source="9frD3eqLlb03GNT8pfGp-121" target="9frD3eqLlb03GNT8pfGp-123" edge="1">
          <mxGeometry relative="1" as="geometry" />
        </mxCell>
        <mxCell id="9frD3eqLlb03GNT8pfGp-121" value="Logout" style="rounded=1;whiteSpace=wrap;html=1;strokeColor=default;align=center;verticalAlign=middle;fontFamily=Helvetica;fontSize=12;fontColor=default;fillColor=default;" parent="9frD3eqLlb03GNT8pfGp-101" vertex="1">
          <mxGeometry x="186" y="971" width="108" height="39" as="geometry" />
        </mxCell>
        <mxCell id="9frD3eqLlb03GNT8pfGp-122" style="edgeStyle=orthogonalEdgeStyle;rounded=0;orthogonalLoop=1;jettySize=auto;html=1;entryX=0.9;entryY=-0.031;entryDx=0;entryDy=0;entryPerimeter=0;fontFamily=Helvetica;fontSize=12;fontColor=default;" parent="9frD3eqLlb03GNT8pfGp-101" source="9frD3eqLlb03GNT8pfGp-112" target="9frD3eqLlb03GNT8pfGp-121" edge="1">
          <mxGeometry relative="1" as="geometry" />
        </mxCell>
        <mxCell id="9frD3eqLlb03GNT8pfGp-123" value="" style="ellipse;whiteSpace=wrap;html=1;rounded=1;strokeColor=default;align=center;verticalAlign=middle;fontFamily=Helvetica;fontSize=12;fontColor=default;fillColor=default;" parent="9frD3eqLlb03GNT8pfGp-101" vertex="1">
          <mxGeometry x="222" y="1158" width="40" height="37" as="geometry" />
        </mxCell>
        <mxCell id="9frD3eqLlb03GNT8pfGp-124" value="" style="ellipse;whiteSpace=wrap;html=1;rounded=1;strokeColor=default;align=center;verticalAlign=middle;fontFamily=Helvetica;fontSize=12;fontColor=default;fillColor=#000000;" parent="9frD3eqLlb03GNT8pfGp-101" vertex="1">
          <mxGeometry x="229" y="1165" width="26" height="23" as="geometry" />
        </mxCell>
      </root>
    </mxGraphModel>
  </diagram>
</mxfile>
